<?xml version="1.0" encoding="UTF-8" standalone="no"?>
<svg
   xmlns:dc="http://purl.org/dc/elements/1.1/"
   xmlns:cc="http://creativecommons.org/ns#"
   xmlns:rdf="http://www.w3.org/1999/02/22-rdf-syntax-ns#"
   xmlns:svg="http://www.w3.org/2000/svg"
   xmlns="http://www.w3.org/2000/svg"
   viewBox="0 0 283.75 285"
   height="285"
   width="283.75"
   xml:space="preserve"
   version="1.1"
   id="svg3355"><metadata
     id="metadata3361"><rdf:RDF><cc:Work
         rdf:about=""><dc:format>image/svg+xml</dc:format><dc:type
           rdf:resource="http://purl.org/dc/dcmitype/StillImage" /><dc:title></dc:title></cc:Work></rdf:RDF></metadata><defs
     id="defs3359" /><g
     transform="matrix(1.25,0,0,-1.25,0,285)"
     id="g3363"><path
       id="path3365"
       style="fill:#000000;fill-opacity:1;fill-rule:nonzero;stroke:#000000;stroke-width:0.007;stroke-linecap:square;stroke-linejoin:miter;stroke-miterlimit:10;stroke-dasharray:none;stroke-opacity:1"
       d="m 0.078,227.309 226.765,0 0,-226.769 -226.765,0 0,226.769 z" /><path
       id="path3367"
       style="fill:#ffffff;fill-opacity:1;fill-rule:nonzero;stroke:#000000;stroke-width:0.007;stroke-linecap:square;stroke-linejoin:miter;stroke-miterlimit:10;stroke-dasharray:none;stroke-opacity:1"
       d="m 56.769,170.618 113.386,0 0,-113.386 -113.386,0 0,113.386 z" /><path
       id="path3369"
       style="fill:#000000;fill-opacity:1;fill-rule:nonzero;stroke:#000000;stroke-width:0.007;stroke-linecap:square;stroke-linejoin:miter;stroke-miterlimit:10;stroke-dasharray:none;stroke-opacity:1"
       d="m 61.343,103.524 0,-40 8,0 0,18 16,0 0,-18 8,0 0,40 -8,0 0,-15 -16,0 0,15 -8,0 z" /><path
       id="path3371"
       style="fill:#000000;fill-opacity:1;fill-rule:nonzero;stroke:#000000;stroke-width:0.007;stroke-linecap:square;stroke-linejoin:miter;stroke-miterlimit:10;stroke-dasharray:none;stroke-opacity:1"
       d="m 100.347,103.52 8.992,0 0,-7.992 -8.992,0 0,7.992 z" /><path
       id="path3373"
       style="fill:#000000;fill-opacity:1;fill-rule:nonzero;stroke:#000000;stroke-width:0.007;stroke-linecap:square;stroke-linejoin:miter;stroke-miterlimit:10;stroke-dasharray:none;stroke-opacity:1"
       d="m 100.347,93.52 8.992,0 0,-30.992 -8.992,0 0,30.992 z" /><path
       id="path3375"
       style="fill:#000000;fill-opacity:1;fill-rule:nonzero;stroke:#000000;stroke-width:0.007;stroke-linecap:square;stroke-linejoin:miter;stroke-miterlimit:10;stroke-dasharray:none;stroke-opacity:1"
       d="m 115.347,93.52 7.992,0 0,-29.992 -7.992,0 0,29.992 z" /><path
       id="path3377"
       style="fill:#000000;fill-opacity:1;fill-rule:nonzero;stroke:#000000;stroke-width:0.007;stroke-linecap:square;stroke-linejoin:miter;stroke-miterlimit:1.41499996;stroke-dasharray:none;stroke-opacity:1"
       d="m 165.316,78.06 c 0,-9.106 -6.942,-16.496 -15.496,-16.496 -8.554,0 -15.496,7.39 -15.496,16.496 0,9.106 6.942,16.496 15.496,16.496 8.554,0 15.496,-7.39 15.496,-16.496 z" /><path
       id="path3379"
       style="fill:#ffffff;fill-opacity:1;fill-rule:nonzero;stroke:#000000;stroke-width:0.007;stroke-linecap:square;stroke-linejoin:miter;stroke-miterlimit:1.41499996;stroke-dasharray:none;stroke-opacity:1"
       d="m 158.356,78 c 0,-5.242 -3.582,-9.496 -7.996,-9.496 -4.414,0 -7.996,4.254 -7.996,9.496 0,5.242 3.582,9.496 7.996,9.496 4.414,0 7.996,-4.254 7.996,-9.496 z" /><path
       id="path3381"
       style="fill:#000000;fill-opacity:1;fill-rule:nonzero;stroke:#000000;stroke-width:0.007;stroke-linecap:square;stroke-linejoin:miter;stroke-miterlimit:10;stroke-dasharray:none;stroke-opacity:1"
       d="m 121.187,85.626 c 1.558,2.094 2.152,3.531 4,5.375 0.898,0.895 1.628,1.453 2.625,1.937 2.312,1.125 4.562,1.125 4.562,1.063 0,-2.309 -0.5,-6.813 -0.5,-6.813 -3.625,-0.5 -3.625,-0.609 -5.437,-1.937 -1.625,-1.191 -2.36,-2.262 -3.125,-4.125 -1.047,-2.543 -0.575,-4.273 -0.938,-7" /></g></svg>