<?xml version="1.0" encoding="UTF-8" standalone="no"?>
<svg
   xmlns:dc="http://purl.org/dc/elements/1.1/"
   xmlns:cc="http://creativecommons.org/ns#"
   xmlns:rdf="http://www.w3.org/1999/02/22-rdf-syntax-ns#"
   xmlns:svg="http://www.w3.org/2000/svg"
   xmlns="http://www.w3.org/2000/svg"
   viewBox="0 0 283.75 285"
   height="285"
   width="283.75"
   xml:space="preserve"
   version="1.1"
   id="svg3421"><metadata
     id="metadata3427"><rdf:RDF><cc:Work
         rdf:about=""><dc:format>image/svg+xml</dc:format><dc:type
           rdf:resource="http://purl.org/dc/dcmitype/StillImage" /><dc:title></dc:title></cc:Work></rdf:RDF></metadata><defs
     id="defs3425" /><g
     transform="matrix(1.25,0,0,-1.25,0,285)"
     id="g3429"><path
       id="path3431"
       style="fill:#000000;fill-opacity:1;fill-rule:nonzero;stroke:#000000;stroke-width:0.007;stroke-linecap:square;stroke-linejoin:miter;stroke-miterlimit:10;stroke-dasharray:none;stroke-opacity:1"
       d="m 0.078,227.309 226.765,0 0,-226.769 -226.765,0 0,226.769 z" /><path
       id="path3433"
       style="fill:#ffffff;fill-opacity:1;fill-rule:nonzero;stroke:#000000;stroke-width:0.007;stroke-linecap:square;stroke-linejoin:miter;stroke-miterlimit:10;stroke-dasharray:none;stroke-opacity:1"
       d="m 56.769,170.618 113.386,0 0,-113.386 -113.386,0 0,113.386 z" /><path
       id="path3435"
       style="fill:#000000;fill-opacity:1;fill-rule:nonzero;stroke:#000000;stroke-width:0.007;stroke-linecap:square;stroke-linejoin:miter;stroke-miterlimit:10;stroke-dasharray:none;stroke-opacity:1"
       d="m 105.375,156.313 c -0.243,-7.445 -0.403,-16.465 -1.063,-23.938 -0.707,-8.015 -1.793,-14.535 -2.062,-15.875 -0.43,-2.113 -1.797,-9.394 -5.625,-16.437 C 93.765,94.797 91.125,91.25 85.117,85.579 77.726,78.598 70.062,73.938 61.625,68.75 c 0,0 2.875,-3.312 3.687,-4.312 0.676,-0.836 3.063,-4.813 3.063,-4.813 9.875,6.75 17,10.688 22.75,16.875 3.261,3.512 4.546,5.485 5.812,7.063 1.563,1.949 2.953,3.473 6.375,8.687 1.527,2.333 4.156,6.7 5.875,10.813 1.816,4.344 2.75,8.375 2.75,8.375 4.563,-12.813 6.938,-16 12.313,-24 4.16,-6.195 10.433,-12.75 15.937,-17.188 5.813,-4.687 7.688,-5.812 14.625,-10.062 0,0 1.695,3.215 3.563,5.875 1.535,2.191 3.312,4 3.312,4 C 148.25,77.75 143.062,81.438 134,91.438 c -3.696,4.078 -6.075,8.383 -8.188,12.312 -4.773,8.891 -7.125,18.489 -10.187,30.188 -0.688,2.625 0.187,13.125 0.062,22.437 l -10.312,-0.062 z" /></g></svg>