<?xml version="1.0" encoding="utf-8"?>
<!-- Generator: Adobe Illustrator 15.0.0, SVG Export Plug-In . SVG Version: 6.00 Build 0)  -->
<!DOCTYPE svg PUBLIC "-//W3C//DTD SVG 1.1//EN" "http://www.w3.org/Graphics/SVG/1.1/DTD/svg11.dtd">
<svg version="1.1" id="Layer_1" xmlns="http://www.w3.org/2000/svg" xmlns:xlink="http://www.w3.org/1999/xlink" x="0px" y="0px"
	 width="99.818px" height="179.699px" viewBox="0 0 99.818 179.699" enable-background="new 0 0 99.818 179.699"
	 xml:space="preserve">
<rect id="White_3_" x="6.659" y="10.537" fill="#FFFFFF" width="86.25" height="162.828"/>
<path id="Phoniclast_3_" fill="#010101" d="M44.978,168.662c1.367,1.365,3.013,2.051,4.933,2.051c1.926,0,3.561-0.682,4.932-2.051
	c1.367-1.369,2.051-3.013,2.051-4.934c0-1.919-0.684-3.562-2.051-4.932c-1.367-1.367-3.012-2.051-4.932-2.051
	s-3.564,0.685-4.933,2.051c-1.368,1.367-2.051,3.013-2.051,4.932C42.927,165.649,43.61,167.292,44.978,168.662z M90.341,144.267
	V29.433c0-1.217-0.443-2.27-1.332-3.159c-0.89-0.89-1.942-1.333-3.159-1.333H13.97c-1.217,0-2.27,0.443-3.159,1.333
	c-0.889,0.89-1.333,1.942-1.333,3.159v114.834c0,1.217,0.444,2.27,1.333,3.158c0.891,0.889,1.942,1.334,3.159,1.334h71.88
	c1.217,0,2.271-0.445,3.159-1.334C89.897,146.537,90.341,145.483,90.341,144.267z M65.387,15.216c0-1.496-0.749-2.246-2.245-2.246
	H36.679c-1.498,0-2.246,0.75-2.246,2.246c0,1.498,0.748,2.246,2.246,2.246h26.463C64.638,17.462,65.387,16.714,65.387,15.216z
	 M99.819,17.97v143.759c0,4.867-1.777,9.079-5.334,12.636c-3.558,3.557-7.77,5.334-12.636,5.334H17.97
	c-4.867,0-9.078-1.777-12.635-5.334C1.778,170.808,0,166.596,0,161.729V17.97c0-4.867,1.777-9.078,5.335-12.636
	C8.892,1.778,13.103,0,17.97,0h63.88c4.866,0,9.078,1.778,12.636,5.334C98.041,8.892,99.819,13.103,99.819,17.97z"/>
<path id="Marker_4_" fill="#010101" d="M23.752,60.691v53.9h53.9v-53.9H23.752z M63.981,101.06H45.938v-9.021h-9.207V83.2h9.392
	v-9.022h17.858V101.06z"/>
</svg>
